<?xml version="1.0" encoding="UTF-8"?><svg id="Layer_2" xmlns="http://www.w3.org/2000/svg" viewBox="0 0 1603.469 215"><g id="products"><path d="M0,3.938h69.041c7.258,0,14.053.735,20.388,2.201,6.331,1.47,11.891,3.863,16.681,7.183,4.785,3.323,8.533,7.685,11.236,13.09,2.701,5.409,4.055,12.127,4.055,20.156,0,11.121-3.128,20.504-9.384,28.15-6.255,7.645-14.943,12.395-26.064,14.248v.462c7.565.927,13.553,2.936,17.956,6.024,4.402,3.092,7.681,6.874,9.846,11.352,2.161,4.482,3.551,9.423,4.171,14.828.616,5.409.927,10.813.927,16.218v9.5c0,3.091.152,5.987.463,8.688.307,2.704.811,5.213,1.506,7.529.695,2.317,1.657,4.25,2.895,5.792h-11.352c-2.165-3.859-3.359-8.376-3.59-13.553-.232-5.173-.348-10.541-.348-16.102s-.232-11.081-.695-16.565c-.463-5.48-1.933-10.386-4.402-14.712-2.472-4.322-6.372-7.797-11.7-10.425-5.329-2.624-12.858-3.939-22.589-3.939H10.194v75.297H0V3.938ZM69.041,85.259c6.024,0,11.62-.731,16.797-2.201,5.173-1.466,9.614-3.743,13.322-6.835,3.707-3.088,6.64-7.027,8.804-11.816,2.161-4.785,3.243-10.502,3.243-17.145,0-6.175-1.158-11.468-3.474-15.87-2.317-4.401-5.409-7.993-9.268-10.773-3.862-2.78-8.34-4.785-13.437-6.023-5.096-1.235-10.425-1.854-15.986-1.854H10.194v72.516h58.847Z" fill="#fff" stroke-width="0"/><path d="M147.579,110.975v1.39c0,6.95.927,13.594,2.787,19.925,1.858,6.334,4.604,11.895,8.247,16.68,3.637,4.79,8.207,8.573,13.705,11.353,5.495,2.779,11.884,4.17,19.164,4.17,11.925,0,21.372-3.127,28.341-9.383,6.969-6.256,11.769-14.943,14.404-26.064h8.804c-2.628,13.901-8.304,24.558-17.029,31.972-8.727,7.413-20.272,11.12-34.636,11.12-8.804,0-16.49-1.586-23.053-4.75-6.566-3.164-12.047-7.49-16.449-12.974-4.402-5.48-7.685-11.968-9.847-19.462-2.165-7.49-3.244-15.558-3.244-24.21,0-8.34,1.119-16.334,3.36-23.979,2.237-7.646,5.597-14.364,10.079-20.157,4.478-5.792,10.078-10.425,16.796-13.901,6.719-3.475,14.632-5.213,23.748-5.213,8.34,0,15.714,1.546,22.125,4.634,6.408,3.092,11.776,7.298,16.102,12.626,4.323,5.329,7.606,11.508,9.846,18.535,2.237,7.03,3.36,14.56,3.36,22.588,0,.775-.039,1.662-.116,2.665-.08,1.006-.116,1.817-.116,2.433h-96.379ZM235.155,103.33c-.311-6.488-1.394-12.627-3.251-18.419-1.861-5.792-4.608-10.889-8.247-15.291-3.641-4.402-8.054-7.913-13.242-10.541-5.191-2.625-11.114-3.939-17.771-3.939-7.124,0-13.397,1.354-18.817,4.055-5.422,2.704-9.991,6.255-13.705,10.657-3.718,4.402-6.581,9.539-8.593,15.407-2.013,5.872-3.255,11.895-3.718,18.071h87.344Z" fill="#fff" stroke-width="0"/><path d="M354.238,87.112c-.463-5.25-1.817-9.883-4.055-13.901-2.24-4.015-5.137-7.335-8.688-9.963-3.555-2.624-7.685-4.633-12.395-6.023-4.713-1.39-9.771-2.085-15.175-2.085-7.414,0-13.98,1.506-19.693,4.518-5.716,3.011-10.505,7.029-14.364,12.047-3.862,5.021-6.799,10.737-8.804,17.145-2.01,6.411-3.012,13.013-3.012,19.808,0,8.033.927,15.447,2.78,22.242,1.854,6.798,4.71,12.706,8.572,17.723,3.859,5.022,8.648,8.92,14.364,11.701,5.713,2.779,12.431,4.17,20.157,4.17,5.56,0,10.693-.927,15.407-2.779,4.71-1.854,8.879-4.402,12.511-7.646,3.627-3.244,6.602-7.142,8.919-11.7,2.317-4.554,3.859-9.535,4.634-14.943h8.804c-.927,7.106-2.86,13.437-5.791,18.998-2.936,5.56-6.643,10.233-11.121,14.017-4.481,3.786-9.578,6.682-15.291,8.688-5.716,2.006-11.739,3.012-18.07,3.012-9.731,0-18.035-1.738-24.906-5.213-6.874-3.475-12.511-8.145-16.912-14.017-4.402-5.868-7.646-12.626-9.731-20.272-2.085-7.646-3.128-15.639-3.128-23.98s1.195-16.218,3.591-23.631c2.393-7.414,5.908-13.901,10.542-19.462,4.633-5.56,10.346-9.962,17.144-13.206,6.795-3.244,14.596-4.866,23.4-4.866,6.487,0,12.547.811,18.186,2.433,5.637,1.622,10.658,4.055,15.059,7.298,4.402,3.243,7.994,7.377,10.774,12.395,2.779,5.021,4.478,10.852,5.096,17.492h-8.804Z" fill="#fff" stroke-width="0"/><path d="M379.258,109.816c0-8.492,1.195-16.486,3.591-23.979,2.394-7.49,5.908-14.093,10.542-19.809,4.633-5.712,10.346-10.23,17.144-13.553,6.795-3.319,14.596-4.981,23.4-4.981s16.601,1.662,23.399,4.981c6.795,3.323,12.511,7.841,17.145,13.553,4.634,5.716,8.145,12.319,10.541,19.809,2.393,7.493,3.591,15.486,3.591,23.979s-1.199,16.529-3.591,24.095c-2.396,7.569-5.907,14.173-10.541,19.809-4.634,5.64-10.35,10.118-17.145,13.437-6.799,3.319-14.596,4.981-23.399,4.981s-16.606-1.662-23.4-4.981c-6.798-3.319-12.511-7.797-17.144-13.437-4.634-5.636-8.149-12.24-10.542-19.809-2.396-7.565-3.591-15.598-3.591-24.095ZM388.063,109.816c0,7.106,1.002,13.941,3.012,20.504,2.005,6.566,4.941,12.395,8.804,17.491,3.859,5.097,8.648,9.152,14.364,12.164,5.713,3.011,12.279,4.517,19.693,4.517s13.976-1.506,19.692-4.517c5.713-3.012,10.502-7.067,14.364-12.164,3.859-5.096,6.795-10.925,8.804-17.491,2.006-6.563,3.012-13.398,3.012-20.504s-1.006-13.937-3.012-20.503c-2.01-6.563-4.945-12.396-8.804-17.492-3.862-5.097-8.651-9.152-14.364-12.163-5.716-3.012-12.279-4.518-19.692-4.518s-13.98,1.506-19.693,4.518c-5.716,3.011-10.505,7.066-14.364,12.163-3.862,5.096-6.799,10.929-8.804,17.492-2.01,6.566-3.012,13.401-3.012,20.503Z" fill="#fff" stroke-width="0"/><path d="M509.229,50.274h8.804v25.485h.462c1.542-4.478,3.743-8.456,6.603-11.931,2.856-3.475,6.175-6.447,9.962-8.919,3.784-2.469,7.914-4.323,12.395-5.561,4.479-1.234,9.036-1.854,13.67-1.854,6.95,0,12.858.851,17.723,2.549,4.866,1.701,8.841,3.939,11.932,6.719,3.088,2.78,5.52,5.907,7.297,9.383,1.774,3.475,3.048,6.99,3.823,10.541.771,3.555,1.234,6.99,1.39,10.311.152,3.323.232,6.219.232,8.688v73.675h-8.804v-75.297c0-2.932-.232-6.639-.695-11.12-.463-4.478-1.817-8.764-4.054-12.858-2.241-4.091-5.64-7.606-10.195-10.541-4.557-2.933-10.852-4.402-18.881-4.402-6.799,0-12.823,1.238-18.071,3.707-5.252,2.472-9.731,5.907-13.437,10.31-3.707,4.402-6.527,9.655-8.457,15.754-1.933,6.104-2.895,12.782-2.895,20.04v64.408h-8.804V50.274Z" fill="#fff" stroke-width="0"/><path d="M717.394,26.527c-7.338-5.329-16.72-7.994-28.149-7.994-4.634,0-9.191.463-13.669,1.39-4.482.927-8.456,2.473-11.931,4.634-3.475,2.165-6.256,5.061-8.341,8.688-2.085,3.632-3.127,8.149-3.127,13.553,0,5.097,1.505,9.232,4.517,12.396,3.012,3.167,7.027,5.755,12.047,7.761,5.018,2.009,10.694,3.671,17.029,4.981,6.331,1.314,12.779,2.744,19.346,4.285,6.563,1.546,13.01,3.36,19.346,5.445,6.331,2.085,12.007,4.905,17.028,8.456,5.018,3.555,9.036,8.033,12.048,13.438,3.011,5.408,4.517,12.202,4.517,20.387,0,8.804-1.969,16.334-5.907,22.589-3.939,6.255-9,11.352-15.175,15.291-6.179,3.938-13.09,6.798-20.736,8.572-7.645,1.774-15.255,2.665-22.82,2.665-9.268,0-18.035-1.158-26.296-3.475-8.265-2.317-15.523-5.828-21.779-10.541-6.256-4.71-11.2-10.734-14.828-18.071-3.631-7.334-5.445-16.022-5.445-26.064h20.852c0,6.95,1.35,12.938,4.055,17.956,2.7,5.021,6.255,9.151,10.657,12.395,4.402,3.243,9.535,5.639,15.407,7.182,5.868,1.546,11.892,2.317,18.071,2.317,4.941,0,9.922-.463,14.943-1.39,5.017-.927,9.535-2.508,13.553-4.75,4.014-2.236,7.258-5.289,9.73-9.151,2.469-3.859,3.707-8.804,3.707-14.828,0-5.712-1.506-10.346-4.518-13.901-3.012-3.551-7.03-6.447-12.047-8.688-5.021-2.237-10.697-4.055-17.029-5.445-6.335-1.39-12.783-2.817-19.346-4.286-6.566-1.466-13.013-3.163-19.345-5.096-6.335-1.93-12.012-4.478-17.029-7.646-5.021-3.163-9.035-7.258-12.047-12.279-3.012-5.018-4.518-11.313-4.518-18.882,0-8.34,1.697-15.558,5.097-21.662,3.395-6.1,7.913-11.12,13.553-15.059,5.636-3.939,12.047-6.871,19.229-8.804,7.183-1.929,14.557-2.895,22.126-2.895,8.492,0,16.37,1.006,23.631,3.011,7.258,2.01,13.63,5.177,19.114,9.5,5.48,4.326,9.807,9.771,12.974,16.334,3.164,6.566,4.902,14.403,5.213,23.515h-20.852c-1.238-11.892-5.524-20.504-12.858-25.832Z" fill="#fff" stroke-width="0"/><path d="M801.841,49.579v16.218h.463c3.243-6.639,8.34-11.468,15.29-14.48,6.951-3.012,14.596-4.518,22.937-4.518,9.267,0,17.336,1.701,24.21,5.097,6.871,3.399,12.587,7.994,17.145,13.785,4.554,5.792,7.994,12.474,10.31,20.041,2.317,7.569,3.475,15.602,3.475,24.095s-1.122,16.529-3.36,24.095c-2.24,7.569-5.639,14.173-10.194,19.809-4.557,5.64-10.273,10.078-17.145,13.322-6.874,3.244-14.867,4.866-23.979,4.866-2.935,0-6.219-.311-9.846-.927-3.632-.619-7.223-1.622-10.774-3.012-3.555-1.39-6.914-3.28-10.078-5.677-3.167-2.393-5.832-5.364-7.993-8.919h-.463v61.627h-19.693V49.579h19.693ZM872.62,92.093c-1.47-5.328-3.707-10.078-6.719-14.248-3.012-4.17-6.874-7.49-11.584-9.962-4.713-2.469-10.234-3.707-16.565-3.707-6.643,0-12.279,1.315-16.913,3.939-4.633,2.628-8.42,6.063-11.352,10.31-2.935,4.25-5.061,9.075-6.372,14.48-1.314,5.409-1.968,10.89-1.968,16.449,0,5.872.695,11.548,2.084,17.029,1.39,5.484,3.591,10.31,6.603,14.48s6.911,7.529,11.7,10.078c4.786,2.549,10.578,3.823,17.376,3.823s12.471-1.311,17.029-3.939c4.553-2.624,8.224-6.1,11.005-10.425,2.78-4.323,4.786-9.267,6.024-14.828,1.234-5.561,1.854-11.273,1.854-17.145,0-5.56-.735-11.005-2.201-16.334Z" fill="#fff" stroke-width="0"/><path d="M936.676,49.579v25.253h.463c4.785-9.73,10.657-16.912,17.608-21.546,6.95-4.634,15.753-6.795,26.411-6.488v20.852c-7.878,0-14.596,1.082-20.157,3.244-5.561,2.165-10.042,5.328-13.437,9.499-3.399,4.171-5.872,9.232-7.413,15.175-1.546,5.948-2.317,12.783-2.317,20.504v53.286h-19.693V49.579h18.535Z" fill="#fff" stroke-width="0"/><path d="M1076.612,161.714c-8.96,6.798-20.236,10.194-33.826,10.194-9.578,0-17.879-1.546-24.905-4.634-7.029-3.088-12.938-7.413-17.724-12.974-4.789-5.561-8.38-12.199-10.773-19.925-2.396-7.721-3.746-16.137-4.055-25.253,0-9.112,1.39-17.452,4.171-25.021,2.78-7.565,6.679-14.133,11.7-19.693,5.018-5.56,10.965-9.882,17.84-12.974,6.871-3.088,14.401-4.634,22.589-4.634,10.657,0,19.497,2.201,26.527,6.603,7.027,4.402,12.663,10.002,16.913,16.797,4.246,6.798,7.182,14.212,8.804,22.241,1.622,8.033,2.277,15.679,1.969,22.937h-89.661c-.156,5.252.463,10.234,1.854,14.943,1.39,4.712,3.627,8.883,6.718,12.511,3.089,3.631,7.027,6.527,11.817,8.688,4.785,2.165,10.425,3.244,16.912,3.244,8.341,0,15.175-1.929,20.504-5.792,5.329-3.858,8.84-9.73,10.541-17.607h19.462c-2.628,13.437-8.421,23.556-17.376,30.35ZM1071.862,84.795c-1.777-4.171-4.17-7.762-7.182-10.773-3.012-3.012-6.567-5.406-10.657-7.183-4.095-1.774-8.612-2.665-13.553-2.665-5.097,0-9.695.89-13.785,2.665-4.095,1.777-7.61,4.21-10.542,7.298-2.935,3.091-5.252,6.682-6.95,10.773-1.701,4.094-2.705,8.456-3.012,13.09h68.809c-.311-4.634-1.354-9.035-3.128-13.206Z" fill="#fff" stroke-width="0"/><path d="M1222.337,168.895c-3.4,2.006-8.109,3.012-14.133,3.012-5.097,0-9.152-1.43-12.164-4.286-3.011-2.856-4.517-7.529-4.517-14.017-5.409,6.488-11.7,11.161-18.882,14.017-7.182,2.856-14.943,4.286-23.284,4.286-5.409,0-10.542-.619-15.407-1.854-4.866-1.234-9.075-3.164-12.626-5.792-3.555-2.624-6.372-6.059-8.457-10.31-2.085-4.246-3.128-9.383-3.128-15.407,0-6.795,1.158-12.355,3.475-16.681,2.317-4.322,5.365-7.837,9.152-10.541,3.783-2.701,8.108-4.75,12.974-6.14,4.865-1.389,9.846-2.548,14.943-3.474,5.405-1.079,10.541-1.89,15.407-2.433,4.865-.54,9.151-1.311,12.858-2.317,3.706-1.002,6.639-2.469,8.804-4.402,2.161-1.929,3.244-4.749,3.244-8.456,0-4.323-.811-7.797-2.433-10.425-1.622-2.625-3.707-4.634-6.256-6.024-2.548-1.39-5.408-2.317-8.572-2.78-3.167-.463-6.295-.695-9.383-.695-8.341,0-15.291,1.586-20.852,4.75-5.56,3.167-8.572,9.151-9.035,17.956h-19.693c.308-7.414,1.854-13.669,4.634-18.766s6.487-9.228,11.12-12.395c4.634-3.164,9.923-5.445,15.87-6.835,5.944-1.39,12.315-2.085,19.114-2.085,5.405,0,10.773.388,16.102,1.158,5.328.772,10.153,2.349,14.48,4.739,4.322,2.39,7.797,5.741,10.425,10.056,2.624,4.315,3.939,9.94,3.939,16.873v61.497c0,4.627.267,8.015.81,10.173.54,2.157,2.353,3.236,5.445,3.236,1.697,0,3.707-.307,6.024-.927v15.291ZM1190.364,107.5c-2.473,1.847-5.716,3.19-9.73,4.037-4.018.846-8.225,1.538-12.627,2.073-4.401.54-8.844,1.156-13.322,1.847-4.481.691-8.496,1.806-12.047,3.341-3.555,1.535-6.451,3.725-8.688,6.571-2.241,2.845-3.36,6.725-3.36,11.642,0,3.229.655,5.954,1.969,8.185,1.311,2.23,3.012,4.036,5.097,5.418,2.084,1.383,4.517,2.383,7.297,2.997,2.78.616,5.712.92,8.804.92,6.488,0,12.048-.884,16.681-2.65,4.634-1.766,8.417-3.997,11.352-6.686,2.933-2.69,5.097-5.612,6.488-8.761,1.39-3.149,2.085-6.111,2.085-8.876v-20.058Z" fill="#fff" stroke-width="0"/><path d="M1327.981,169.359v-16.218h-.463c-3.244,6.643-8.34,11.432-15.291,14.364-6.95,2.933-14.596,4.402-22.936,4.402-9.268,0-17.34-1.701-24.211-5.097-6.874-3.395-12.59-7.953-17.145-13.669-4.557-5.712-7.993-12.355-10.31-19.925-2.317-7.565-3.475-15.598-3.475-24.095s1.119-16.525,3.36-24.095c2.237-7.566,5.636-14.169,10.194-19.809,4.554-5.636,10.27-10.114,17.145-13.437,6.871-3.319,14.864-4.981,23.98-4.981,3.088,0,6.407.312,9.962.927,3.551.619,7.102,1.662,10.657,3.128,3.551,1.47,6.911,3.399,10.079,5.792,3.163,2.396,5.828,5.368,7.993,8.919h.463V3.938h19.693v165.421h-19.693ZM1257.202,126.845c1.466,5.329,3.707,10.078,6.718,14.248,3.012,4.171,6.871,7.494,11.585,9.962,4.71,2.473,10.23,3.707,16.564,3.707,6.64,0,12.28-1.311,16.913-3.939,4.634-2.624,8.417-6.059,11.353-10.31,2.932-4.246,5.057-9.072,6.371-14.48,1.311-5.405,1.969-10.889,1.969-16.449,0-5.868-.695-11.545-2.085-17.029-1.39-5.48-3.591-10.31-6.602-14.48-3.012-4.17-6.915-7.529-11.701-10.078-4.789-2.549-10.581-3.823-17.375-3.823-6.644,0-12.28,1.315-16.913,3.939-4.634,2.628-8.341,6.104-11.121,10.425-2.779,4.327-4.789,9.268-6.023,14.828-1.238,5.561-1.854,11.277-1.854,17.145,0,5.561.731,11.005,2.201,16.334Z" fill="#fff" stroke-width="0"/><path d="M1462.815,161.714c-8.96,6.798-20.236,10.194-33.826,10.194-9.578,0-17.879-1.546-24.905-4.634-7.029-3.088-12.938-7.413-17.724-12.974-4.789-5.561-8.38-12.199-10.773-19.925-2.396-7.721-3.746-16.137-4.055-25.253,0-9.112,1.39-17.452,4.171-25.021,2.78-7.565,6.679-14.133,11.7-19.693,5.018-5.56,10.965-9.882,17.84-12.974,6.871-3.088,14.401-4.634,22.589-4.634,10.657,0,19.497,2.201,26.527,6.603,7.027,4.402,12.663,10.002,16.913,16.797,4.246,6.798,7.182,14.212,8.804,22.241,1.622,8.033,2.277,15.679,1.969,22.937h-89.661c-.156,5.252.463,10.234,1.854,14.943,1.39,4.712,3.627,8.883,6.718,12.511,3.089,3.631,7.027,6.527,11.817,8.688,4.785,2.165,10.425,3.244,16.912,3.244,8.341,0,15.175-1.929,20.504-5.792,5.329-3.858,8.84-9.73,10.541-17.607h19.462c-2.628,13.437-8.421,23.556-17.376,30.35ZM1458.066,84.795c-1.777-4.171-4.17-7.762-7.182-10.773-3.012-3.012-6.567-5.406-10.657-7.183-4.095-1.774-8.612-2.665-13.553-2.665-5.097,0-9.695.89-13.785,2.665-4.095,1.777-7.61,4.21-10.542,7.298-2.935,3.091-5.252,6.682-6.95,10.773-1.701,4.094-2.705,8.456-3.012,13.09h68.809c-.311-4.634-1.354-9.035-3.128-13.206Z" fill="#fff" stroke-width="0"/><path d="M1520.27,49.579v25.253h.463c4.785-9.73,10.657-16.912,17.608-21.546,6.95-4.634,15.753-6.795,26.411-6.488v20.852c-7.878,0-14.596,1.082-20.157,3.244-5.561,2.165-10.042,5.328-13.437,9.499-3.399,4.171-5.872,9.232-7.413,15.175-1.546,5.948-2.317,12.783-2.317,20.504v53.286h-19.693V49.579h18.535Z" fill="#fff" stroke-width="0"/><path d="M1577.456,48.949h-5.039v-1.693h12.066v1.693h-5.036v13.797h-1.991v-13.797ZM1587.229,47.256h3.195l5,12.558,4.85-12.558h3.195v15.49h-1.994v-13.685h-.074l-5.49,13.685h-1.127l-5.487-13.685h-.077v13.685h-1.991v-15.49Z" fill="#fff" stroke-width="0"/></g></svg>